<?xml version="1.0" encoding="UTF-8"?><svg id="Layer_1" xmlns="http://www.w3.org/2000/svg" viewBox="0 0 415 419.25"><path d="m134.28,179.39c-2.57-1.29-5.46-1.93-8.65-1.93h-21.09v50.47h11.22v-18.37h9.87c3.19,0,6.08-.65,8.65-1.97,2.57-1.31,4.61-3.17,6.11-5.57,1.5-2.41,2.25-5.25,2.25-8.54s-.75-6.14-2.25-8.54c-1.5-2.41-3.54-4.25-6.11-5.54Zm-3.79,18.09c-.67,1.1-1.57,1.93-2.72,2.5-1.14.57-2.41.86-3.79.86h-8.22v-14.65h8.22c1.38,0,2.65.29,3.79.86,1.14.57,2.05,1.41,2.72,2.5.67,1.1,1,2.41,1,3.93s-.33,2.91-1,4Z"/><polygon points="163.58 214.29 156.65 193.19 144.86 193.19 158.12 225.54 150.22 242.58 161.44 242.58 167.59 228.07 182.46 193.19 170.66 193.19 163.58 214.29"/><path d="m218.2,217.28c-1.91.81-4.15,1.22-6.72,1.22-2.19,0-4.21-.38-6.04-1.14-1.84-.76-3.41-1.83-4.72-3.22-1.31-1.38-2.34-3.05-3.07-5-.74-1.95-1.11-4.12-1.11-6.51s.37-4.48,1.11-6.43c.74-1.95,1.76-3.62,3.07-5,1.31-1.38,2.88-2.44,4.72-3.18,1.83-.74,3.85-1.11,6.04-1.11,2.48,0,4.66.41,6.54,1.22,1.88.81,3.49,1.93,4.83,3.36l7.51-7.58c-2.34-2.24-5.06-4-8.19-5.29-3.12-1.29-6.68-1.93-10.69-1.93-3.77,0-7.26.66-10.47,1.97-3.22,1.31-6.02,3.13-8.4,5.47-2.38,2.34-4.24,5.09-5.58,8.26-1.33,3.17-2,6.59-2,10.26s.67,7.09,2,10.26c1.33,3.17,3.2,5.94,5.61,8.33,2.41,2.38,5.22,4.23,8.44,5.54,3.22,1.31,6.71,1.97,10.47,1.97,4.1,0,7.71-.64,10.83-1.93,3.12-1.29,5.9-3.05,8.33-5.29l-7.58-7.58c-1.38,1.43-3.03,2.55-4.93,3.36Z"/><path d="m261.52,194.76c-2.86-1.57-6.1-2.36-9.72-2.36s-6.86.8-9.72,2.4c-2.86,1.6-5.12,3.75-6.79,6.47-1.67,2.72-2.5,5.79-2.5,9.22s.83,6.53,2.5,9.29c1.67,2.76,3.94,4.94,6.83,6.54,2.88,1.6,6.11,2.4,9.69,2.4s6.86-.8,9.72-2.4c2.86-1.6,5.12-3.78,6.79-6.54,1.67-2.76,2.5-5.86,2.5-9.29s-.83-6.52-2.5-9.26c-1.67-2.74-3.93-4.9-6.79-6.47Zm-2.82,20.05c-.64,1.26-1.56,2.24-2.75,2.93-1.19.69-2.57,1.04-4.15,1.04s-2.88-.35-4.07-1.04c-1.19-.69-2.12-1.67-2.79-2.93-.67-1.26-1-2.68-1-4.25s.33-3.05,1-4.29c.67-1.24,1.6-2.2,2.79-2.89,1.19-.69,2.55-1.04,4.07-1.04s2.94.35,4.11,1.04c1.17.69,2.08,1.64,2.75,2.86.67,1.22,1,2.63,1,4.25s-.32,3.06-.96,4.32Z"/><path d="m308.42,199.12c-1.14-2-2.71-3.61-4.68-4.82-1.98-1.21-4.25-1.82-6.83-1.82s-5.06.56-7.18,1.68c-.94.5-1.78,1.1-2.54,1.78v-2.75h-10.94v34.74h10.94v-19.8c0-1.19.26-2.25.79-3.18.52-.93,1.24-1.64,2.14-2.14.91-.5,1.95-.75,3.15-.75,1.72,0,3.13.56,4.25,1.68,1.12,1.12,1.68,2.58,1.68,4.4v19.8h10.94v-22.23c0-2.38-.57-4.57-1.72-6.58Z"/><path d="m401.2,169.68C382.49,78.24,301.06,11.88,207.59,11.88c-22.34,0-44.27,3.7-65.17,11-20.3,7.09-39.23,17.42-56.27,30.7-16.86,13.15-31.41,28.84-43.24,46.62-12.02,18.08-20.92,37.85-26.43,58.77-.28,1.07-.58,2.16-.88,3.26-2.75,10.11-5.86,21.57-2.15,32.25,3.47,9.99,12.46,17.41,22.91,18.9,1.35.19,2.7.29,4.03.29,13.14,0,24.94-9.18,27.87-22.32l.45-1.16.1-.35c4.09-19.08,9.98-41.1,22.71-59.8,11.56-16.99,27.1-31.45,44.93-41.82,18.26-10.61,39.17-17.05,60.47-18.61,3.53-.26,7.12-.39,10.66-.39,32.26,0,62.59,10.65,87.7,30.79,24.39,19.56,41.73,46.99,48.85,77.24l1.91,8.07,2.57-7.9c.15-.45,3.77-11.03,20.74-15.27,16.81-4.2,27.25,8.79,27.73,9.41l6.12,7.9-2-9.79Zm-32.97-12.03c-11.6,2.9-17.83,8.6-21.01,12.89-8.1-29.01-25.35-55.16-49.01-74.14-25.58-20.51-57.76-31.81-90.61-31.81-3.66,0-7.36.13-11,.4-22,1.62-43.61,8.26-62.47,19.23-18.43,10.71-34.49,25.66-46.44,43.22-13.14,19.31-19.19,41.79-23.37,61.26l-.44,1.16-.1.34c-2.64,12.2-14.39,20.36-26.73,18.59-8.75-1.25-16.28-7.47-19.18-15.83-3.23-9.32-.45-19.58,2.25-29.5.3-1.11.6-2.21.89-3.29,5.39-20.43,14.07-39.73,25.81-57.38,11.55-17.37,25.76-32.69,42.22-45.53,16.63-12.97,35.12-23.05,54.94-29.98,20.41-7.12,41.81-10.74,63.63-10.74,88.75,0,166.37,61.26,187.4,146.72-5.5-4.13-14.72-8.61-26.76-5.6Z"/><path d="m32.44,180.05c-4.28,0-7.75,3.47-7.75,7.75s3.47,7.75,7.75,7.75,7.75-3.47,7.75-7.75-3.47-7.75-7.75-7.75Z"/><path d="m111.96,66.23c-1.32-1.57-2.81-2.63-4.49-3.18-1.68-.55-3.39-.62-5.14-.2-1.74.42-3.38,1.26-4.9,2.54l-4.71,3.95h0s-5.36,4.49-5.36,4.49l20.19,24.1,5.36-4.49-7.35-8.77,4.71-3.95c1.52-1.28,2.64-2.74,3.34-4.4.7-1.66.93-3.36.69-5.11-.25-1.75-1.03-3.41-2.34-4.98Zm-4.5,9.06c-.32.73-.81,1.37-1.47,1.93l-3.92,3.29-5.86-7,3.92-3.29c.66-.55,1.38-.92,2.15-1.11.77-.18,1.54-.15,2.3.11.76.26,1.44.75,2.05,1.48.63.75,1,1.52,1.12,2.31.12.79.02,1.55-.3,2.28Z"/><path d="m148.76,52.8c-1.04-2.07-2.38-3.79-4.01-5.18-1.63-1.39-3.45-2.4-5.45-3.03-2-.64-4.08-.87-6.24-.69-2.16.18-4.28.79-6.38,1.85-2.12,1.07-3.89,2.42-5.31,4.05-1.42,1.63-2.46,3.44-3.12,5.42-.66,1.98-.92,4.03-.78,6.16.14,2.12.73,4.22,1.78,6.29,1.03,2.04,2.36,3.75,3.99,5.14,1.63,1.39,3.46,2.4,5.48,3.05,2.02.64,4.11.88,6.28.72,2.16-.16,4.31-.78,6.43-1.85,2.07-1.04,3.81-2.39,5.22-4.03,1.41-1.65,2.45-3.46,3.11-5.44.66-1.98.92-4.04.77-6.18-.15-2.14-.74-4.23-1.77-6.27Zm-6.46,12.94c-.88,1.38-2.16,2.49-3.83,3.33-1.25.63-2.49.99-3.74,1.09-1.25.1-2.43-.06-3.56-.47-1.12-.41-2.16-1.06-3.11-1.95-.95-.89-1.75-1.99-2.42-3.32-.9-1.77-1.33-3.49-1.31-5.15.03-1.66.48-3.17,1.38-4.54.89-1.36,2.17-2.47,3.84-3.31,1.25-.63,2.48-1,3.71-1.1,1.23-.1,2.41.05,3.55.45,1.14.41,2.18,1.05,3.11,1.92.94.87,1.74,1.97,2.41,3.29.88,1.75,1.32,3.47,1.31,5.15s-.46,3.22-1.35,4.6Z"/><path d="m173.19,48.43c1.38-1.13,2.34-2.47,2.88-4.02.54-1.55.6-3.22.16-5.01-.42-1.76-1.23-3.21-2.43-4.36-1.19-1.15-2.65-1.92-4.36-2.31-1.72-.39-3.58-.35-5.6.14l-5.67,1.37h0s-6.8,1.64-6.8,1.64l7.38,30.56,6.8-1.64-3.04-12.6.71-.17,12.16,10.39,8.05-1.94-12.9-10.46c1-.44,1.89-.96,2.66-1.59Zm-4.16-4.22c-.57.87-1.53,1.47-2.89,1.8l-4.85,1.17-1.85-7.66,4.89-1.18c1.36-.33,2.48-.22,3.38.33.9.55,1.48,1.37,1.74,2.47.29,1.18.14,2.21-.42,3.08Z"/><polygon points="206.59 27.65 179.98 29.42 180.38 35.51 190.2 34.85 191.89 60.13 198.86 59.67 197.18 34.39 207 33.73 206.59 27.65"/><path d="m230.95,48.95c-.11,1.24-.47,2.29-1.07,3.15-.6.85-1.37,1.49-2.3,1.89-.93.41-1.99.56-3.17.45-1.12-.1-2.13-.44-3.02-1.01-.89-.57-1.55-1.34-2-2.31-.45-.96-.62-2.07-.5-3.31l1.77-19.38-7.01-.64-1.73,18.98c-.23,2.48.13,4.74,1.06,6.78.93,2.04,2.33,3.69,4.2,4.97,1.87,1.27,4.09,2.03,6.66,2.26,2.57.23,4.88-.11,6.94-1.02,2.05-.91,3.71-2.28,4.98-4.11,1.27-1.82,2.02-3.97,2.24-6.46l1.74-19.02-7.01-.64-1.78,19.42Z"/><path d="m275.26,54.74l.29-.98-15.83-4.72-1.69,5.67,8.6,2.72c-.35.57-.72,1.09-1.15,1.53-1.05,1.07-2.29,1.75-3.72,2.05-1.44.3-3.04.18-4.8-.34-1.74-.52-3.15-1.37-4.25-2.57-1.1-1.2-1.82-2.62-2.16-4.27-.34-1.65-.24-3.42.32-5.29.56-1.88,1.44-3.4,2.64-4.58,1.2-1.17,2.62-1.94,4.24-2.31,1.63-.37,3.32-.29,5.09.24,1.65.49,3.04,1.25,4.16,2.26,1.12,1.02,1.98,2.29,2.57,3.83l5.93-3.2c-.9-2.07-2.27-3.88-4.11-5.46-1.84-1.57-4.05-2.74-6.64-3.51-2.25-.67-4.47-.91-6.67-.71-2.2.2-4.24.78-6.12,1.75-1.89.97-3.52,2.27-4.91,3.9-1.39,1.63-2.4,3.54-3.06,5.73-.65,2.19-.86,4.35-.61,6.49.25,2.13.87,4.12,1.87,5.95,1,1.83,2.34,3.43,4.03,4.8,1.68,1.37,3.62,2.38,5.81,3.04,2.99.89,5.81,1.05,8.48.48,2.66-.57,5.01-1.89,7.04-3.96,2.03-2.08,3.58-4.92,4.66-8.53Z"/><path d="m295.78,49.15l-26.26,21.31,6.33,3.55,4.61-3.95,10.75,6.03-.99,5.98,6.45,3.62,4.64-33.45-5.51-3.1Zm-3.58,20.97l-7.12-4,9.08-7.76-1.95,11.76Z"/><polygon points="318.41 63.5 297.88 87.31 303.17 91.88 303.17 91.88 313.73 100.98 317.74 96.32 307.19 87.22 323.7 68.06 318.41 63.5"/><path d="m66.57,200.29c.06-.55.06-.87.06-.87-.03.29-.04.58-.06.87Z"/><path d="m393.77,178.61c-4.71-4.45-10.97-7.04-17.44-7.14-15.25-.24-27.04,12.21-26.71,26.83l-.18,1.41c.55,22.21-.53,43.93-8.26,64.39-7.43,19.66-19.3,37.55-34.48,52.06-15.66,14.97-34.72,26.2-55.33,32.79-3.44,1.1-6.92,2.07-10.44,2.92-76.55,18.41-153.51-28.8-171.9-105.46-3.64-15.17-4.7-30.35-3.48-45.09-.39,3.79-3.4,18.73-26.37,20.08-23.25,1.37-26.34-18.62-26.34-18.62-1.41,19.58.15,35.84,4.97,55.94,25.18,104.98,130.59,169.65,235.42,144.43,21.27-5.12,41.66-13.78,60.06-25.63,17.84-11.49,33.75-25.92,46.96-42.53,13.11-16.47,23.54-35.06,30.78-54.84,7.33-20.05,11.36-41.29,11.83-62.63.29-13.2,1.78-28.65-9.09-38.91Zm-223.37,192.95c-.47,1.41-1.09,2.65-1.85,3.71-.77,1.07-1.75,2.04-2.96,2.92-1.21.88-2.73,1.78-4.56,2.7l-9.35,4.65,13.36,4.45-2.24,6.74-25.54-8.51,1.47-4.43,18.32-9.54c1.12-.56,2.04-1.11,2.78-1.64.74-.54,1.33-1.08,1.77-1.62.44-.54.77-1.13.98-1.77.46-1.37.37-2.6-.25-3.69-.63-1.08-1.66-1.87-3.1-2.35-1.41-.47-2.8-.51-4.17-.13-1.38.38-2.87,1.25-4.47,2.62l-3.76-6.33c2.2-1.91,4.59-3.11,7.17-3.59,2.58-.48,5.28-.25,8.1.69,2.45.81,4.42,1.97,5.91,3.47,1.49,1.5,2.45,3.26,2.88,5.26.43,2.01.27,4.13-.48,6.38Zm34.03,12.57c-.48,3.82-1.59,7.09-3.33,9.79s-3.9,4.7-6.46,6c-2.57,1.3-5.36,1.76-8.37,1.39-2.98-.37-5.58-1.52-7.8-3.43-2.22-1.91-3.84-4.4-4.86-7.47-1.02-3.06-1.3-6.49-.83-10.28.48-3.82,1.58-7.08,3.3-9.76,1.72-2.69,3.88-4.68,6.46-5.98,2.58-1.3,5.38-1.76,8.4-1.38,3.05.38,5.67,1.52,7.85,3.41,2.19,1.89,3.79,4.36,4.82,7.41,1.03,3.05,1.3,6.48.82,10.3Zm5.22,18.53l-.35-4.65,13.22-15.87c.81-.95,1.46-1.81,1.93-2.59.47-.78.81-1.5,1.01-2.17.2-.67.27-1.34.22-2.01-.11-1.44-.66-2.54-1.66-3.3s-2.25-1.08-3.77-.97c-1.48.11-2.78.61-3.9,1.49-1.12.88-2.16,2.26-3.12,4.14l-5.91-4.39c1.29-2.61,3.04-4.64,5.23-6.08s4.77-2.27,7.73-2.49c2.57-.19,4.84.12,6.79.93,1.96.81,3.52,2.06,4.69,3.74,1.17,1.68,1.85,3.71,2.02,6.07.11,1.48.02,2.86-.28,4.14s-.83,2.56-1.6,3.84c-.77,1.28-1.83,2.7-3.16,4.25l-6.84,7.9,14.05-1.05.53,7.08-26.85,2.01Zm56.55-14.77c-.69,2.15-1.96,4.02-3.79,5.6s-4.17,2.74-7,3.49c-2.49.66-4.9.82-7.21.5-2.31-.32-4.4-1.12-6.27-2.38l3.81-6.54c.9.79,2.05,1.31,3.46,1.58,1.4.27,2.81.22,4.21-.15,1.26-.33,2.3-.84,3.1-1.53.81-.69,1.37-1.51,1.68-2.47s.32-2,.03-3.13c-.3-1.13-.81-2.02-1.55-2.69-.74-.66-1.68-1.08-2.8-1.26-1.13-.18-2.39-.08-3.79.29-.65.17-1.31.39-1.99.66-.68.27-1.23.55-1.67.85l-1.17-4.46,4.74-9.85-12.34,3.25-1.79-6.82,23.32-6.14,1.17,4.46-5.82,11.67c1.55-.29,3.05-.25,4.5.16,1.7.49,3.19,1.41,4.48,2.77,1.29,1.36,2.22,3.13,2.8,5.32.63,2.39.6,4.67-.1,6.82Zm116.94-183.56c-4.28,0-7.75-3.47-7.75-7.76s3.47-7.76,7.75-7.76,7.75,3.47,7.75,7.76-3.47,7.76-7.75,7.76Z"/><path d="m193.91,372.16c-1.01-1.04-2.3-1.65-3.88-1.85-1.51-.19-2.89.09-4.13.82-1.25.73-2.28,1.94-3.1,3.62s-1.38,3.82-1.71,6.41c-.32,2.59-.3,4.8.08,6.63s1.08,3.27,2.11,4.32c1.03,1.05,2.31,1.68,3.85,1.87,1.54.19,2.93-.09,4.16-.84,1.23-.75,2.27-1.98,3.1-3.67.83-1.7,1.41-3.82,1.73-6.38.32-2.59.29-4.81-.11-6.64-.4-1.83-1.1-3.26-2.11-4.29Z"/></svg>
