<?xml version="1.0" encoding="UTF-8"?><svg id="Layer_1" xmlns="http://www.w3.org/2000/svg" viewBox="0 0 1920 1080"><defs><style>.cls-1{fill:#2d2d2d;}.cls-1,.cls-2,.cls-3,.cls-4,.cls-5{isolation:isolate;}.cls-1,.cls-2,.cls-3,.cls-5{font-family:Poppins-Bold, Poppins;font-size:27.96px;font-weight:700;}.cls-2{fill:#2075bb;}.cls-6{fill:#fff;}.cls-7{fill:#07979d;}.cls-3{fill:#f8f7f7;}.cls-8{opacity:.6;}.cls-5{fill:#f7a828;}</style></defs><rect class="cls-7" x="-2.76" y="-7.36" width="1925.86" height="1094.73"/><path class="cls-6" d="m167.58,177.97c-1.38-.69-2.92-1.03-4.63-1.03h-11.3v27.04h6.01v-9.84h5.29c1.71,0,3.26-.35,4.63-1.05,1.38-.7,2.47-1.7,3.27-2.99.8-1.29,1.21-2.82,1.21-4.58s-.4-3.29-1.21-4.58c-.8-1.29-1.9-2.28-3.27-2.97Zm-2.03,9.69c-.36.59-.84,1.03-1.46,1.34-.61.31-1.29.46-2.03.46h-4.4v-7.85h4.4c.74,0,1.42.15,2.03.46.61.31,1.1.75,1.46,1.34.36.59.54,1.29.54,2.11s-.18,1.56-.54,2.14Z"/><polygon class="cls-6" points="183.28 196.66 179.57 185.36 173.25 185.36 180.35 202.7 176.12 211.83 182.13 211.83 185.43 204.05 193.39 185.36 187.07 185.36 183.28 196.66"/><path class="cls-6" d="m212.54,198.27c-1.02.43-2.22.65-3.6.65-1.17,0-2.25-.2-3.24-.61-.98-.41-1.83-.98-2.53-1.72-.7-.74-1.25-1.63-1.65-2.68-.4-1.05-.59-2.21-.59-3.49s.2-2.4.59-3.45c.4-1.05.94-1.94,1.65-2.68.7-.74,1.54-1.31,2.53-1.7.98-.4,2.06-.59,3.24-.59,1.33,0,2.5.22,3.5.65,1.01.43,1.87,1.03,2.59,1.8l4.02-4.06c-1.25-1.2-2.71-2.14-4.39-2.83-1.67-.69-3.58-1.03-5.73-1.03-2.02,0-3.89.35-5.61,1.05-1.72.7-3.22,1.68-4.5,2.93-1.28,1.25-2.27,2.73-2.99,4.42-.72,1.7-1.07,3.53-1.07,5.5s.36,3.8,1.07,5.5c.71,1.7,1.72,3.19,3.01,4.46,1.29,1.28,2.8,2.27,4.52,2.97,1.72.7,3.59,1.05,5.61,1.05,2.2,0,4.13-.34,5.8-1.03,1.67-.69,3.16-1.63,4.46-2.83l-4.06-4.06c-.74.77-1.62,1.37-2.64,1.8Z"/><path class="cls-6" d="m235.76,186.2c-1.53-.84-3.27-1.26-5.21-1.26s-3.68.43-5.21,1.28c-1.53.86-2.75,2.01-3.64,3.47-.89,1.46-1.34,3.1-1.34,4.94s.45,3.5,1.34,4.98c.89,1.48,2.11,2.65,3.66,3.5,1.54.86,3.27,1.28,5.19,1.28s3.68-.43,5.21-1.28c1.53-.85,2.74-2.02,3.64-3.5.89-1.48,1.34-3.14,1.34-4.98s-.45-3.49-1.34-4.96c-.89-1.47-2.11-2.62-3.64-3.47Zm-1.51,10.74c-.34.68-.84,1.2-1.47,1.57-.64.37-1.38.56-2.22.56s-1.55-.18-2.18-.56c-.64-.37-1.14-.89-1.49-1.57-.36-.68-.54-1.44-.54-2.28s.18-1.63.54-2.3c.36-.66.86-1.18,1.49-1.55.64-.37,1.37-.56,2.18-.56s1.58.19,2.2.56c.63.37,1.12.88,1.47,1.53.36.65.54,1.41.54,2.28s-.17,1.64-.52,2.32Z"/><path class="cls-6" d="m260.88,188.54c-.61-1.07-1.45-1.93-2.51-2.59-1.06-.65-2.28-.98-3.66-.98s-2.71.3-3.85.9c-.51.27-.95.59-1.36.96v-1.47h-5.86v18.61h5.86v-10.61c0-.64.14-1.21.42-1.7.28-.5.66-.88,1.15-1.15.48-.27,1.05-.4,1.69-.4.92,0,1.68.3,2.28.9.6.6.9,1.39.9,2.36v10.61h5.86v-11.91c0-1.28-.31-2.45-.92-3.52Z"/><path class="cls-6" d="m310.59,172.76c-10.03-48.99-53.65-84.55-103.74-84.55-11.97,0-23.72,1.98-34.92,5.89-10.88,3.8-21.02,9.33-30.15,16.45-9.03,7.05-16.83,15.45-23.17,24.98-6.44,9.69-11.21,20.28-14.16,31.49-.15.58-.31,1.16-.47,1.75-1.47,5.42-3.14,11.56-1.15,17.28,1.86,5.35,6.68,9.33,12.28,10.13.72.1,1.44.15,2.16.15,7.04,0,13.36-4.92,14.93-11.96l.24-.62.06-.18c2.19-10.22,5.35-22.02,12.17-32.04,6.19-9.1,14.52-16.85,24.07-22.4,9.78-5.69,20.99-9.13,32.4-9.97,1.89-.14,3.81-.21,5.71-.21,17.29,0,33.54,5.7,46.99,16.5,13.07,10.48,22.36,25.18,26.17,41.38l1.02,4.32,1.38-4.23c.08-.24,2.02-5.91,11.11-8.18,9.01-2.25,14.6,4.71,14.86,5.04l3.28,4.23-1.07-5.25Zm-17.67-6.45c-6.22,1.55-9.55,4.61-11.26,6.9-4.34-15.54-13.58-29.56-26.26-39.73-13.7-10.99-30.95-17.05-48.55-17.05-1.96,0-3.94.07-5.9.21-11.79.87-23.36,4.43-33.47,10.3-9.88,5.74-18.48,13.75-24.88,23.16-7.04,10.34-10.28,22.39-12.52,32.82l-.24.62-.05.18c-1.42,6.53-7.71,10.91-14.32,9.96-4.69-.67-8.72-4-10.28-8.48-1.73-4.99-.24-10.49,1.2-15.81.16-.59.32-1.18.47-1.76,2.89-10.94,7.54-21.29,13.83-30.74,6.19-9.31,13.8-17.52,22.62-24.4,8.91-6.95,18.82-12.35,29.44-16.06,10.93-3.82,22.4-5.75,34.09-5.75,47.55,0,89.14,32.82,100.41,78.61-2.95-2.21-7.89-4.61-14.34-3Z"/><path class="cls-6" d="m113.01,178.32c-2.29,0-4.15,1.86-4.15,4.15s1.86,4.15,4.15,4.15,4.15-1.86,4.15-4.15-1.86-4.15-4.15-4.15Z"/><path class="cls-6" d="m155.62,117.34c-.71-.84-1.51-1.41-2.41-1.7-.9-.29-1.82-.33-2.75-.11-.93.22-1.81.68-2.63,1.36l-2.52,2.12h0s-2.87,2.41-2.87,2.41l10.82,12.91,2.87-2.41-3.94-4.7,2.52-2.12c.82-.68,1.41-1.47,1.79-2.36.38-.89.5-1.8.37-2.74-.13-.94-.55-1.83-1.26-2.67Zm-2.41,4.85c-.17.39-.43.74-.79,1.03l-2.1,1.76-3.14-3.75,2.1-1.76c.35-.3.74-.49,1.15-.59.42-.1.83-.08,1.23.06.41.14.77.4,1.1.79.34.4.54.82.6,1.24.06.42.01.83-.16,1.22Z"/><path class="cls-6" d="m175.34,110.14c-.56-1.11-1.28-2.03-2.15-2.78-.87-.74-1.85-1.29-2.92-1.63-1.07-.34-2.19-.46-3.34-.37-1.16.09-2.29.42-3.42.99-1.14.57-2.08,1.3-2.85,2.17-.76.87-1.32,1.84-1.67,2.9-.36,1.06-.49,2.16-.42,3.3.08,1.14.39,2.26.95,3.37.55,1.09,1.27,2.01,2.14,2.75.87.74,1.85,1.29,2.94,1.63,1.08.34,2.2.47,3.36.39,1.16-.09,2.31-.42,3.44-.99,1.11-.56,2.04-1.28,2.8-2.16.76-.88,1.31-1.85,1.67-2.91.36-1.06.49-2.16.41-3.31-.08-1.14-.4-2.26-.95-3.36Zm-3.46,6.93c-.47.74-1.16,1.33-2.05,1.78-.67.34-1.34.53-2,.58-.67.05-1.3-.03-1.91-.25-.6-.22-1.16-.57-1.66-1.04-.51-.47-.94-1.07-1.3-1.78-.48-.95-.71-1.87-.7-2.76.01-.89.26-1.7.74-2.43.48-.73,1.16-1.32,2.06-1.77.67-.34,1.33-.53,1.99-.59.66-.06,1.29.03,1.9.24.61.22,1.17.56,1.67,1.03.5.47.93,1.06,1.29,1.77.47.94.71,1.86.7,2.76s-.25,1.72-.72,2.46Z"/><path class="cls-6" d="m188.43,107.8c.74-.6,1.25-1.32,1.54-2.15.29-.83.32-1.73.09-2.69-.23-.94-.66-1.72-1.3-2.34-.64-.61-1.42-1.03-2.34-1.24-.92-.21-1.92-.19-3,.07l-3.04.73h0s-3.64.88-3.64.88l3.96,16.37,3.64-.88-1.63-6.75.38-.09,6.51,5.57,4.31-1.04-6.91-5.61c.53-.23,1.01-.51,1.42-.85Zm-2.23-2.26c-.3.47-.82.79-1.55.96l-2.6.63-.99-4.1,2.62-.63c.73-.18,1.33-.12,1.81.18.48.29.79.73.93,1.32.15.63.08,1.18-.23,1.65Z"/><polygon class="cls-6" points="206.32 96.66 192.06 97.61 192.28 100.87 197.54 100.52 198.44 114.07 202.18 113.82 201.28 100.27 206.54 99.92 206.32 96.66"/><path class="cls-6" d="m219.38,108.08c-.06.67-.25,1.23-.57,1.69-.32.46-.73.8-1.23,1.01-.5.22-1.07.3-1.7.24-.6-.05-1.14-.24-1.62-.54-.47-.31-.83-.72-1.07-1.24-.24-.52-.33-1.11-.27-1.77l.95-10.38-3.75-.34-.93,10.17c-.12,1.33.07,2.54.57,3.63.5,1.09,1.25,1.98,2.25,2.66,1,.68,2.19,1.09,3.57,1.21,1.38.13,2.62-.06,3.72-.55,1.1-.49,1.99-1.22,2.67-2.2.68-.98,1.08-2.13,1.2-3.46l.93-10.19-3.75-.34-.95,10.41Z"/><path class="cls-6" d="m243.11,111.18l.16-.53-8.48-2.53-.91,3.04,4.61,1.46c-.19.3-.39.58-.62.82-.56.57-1.23.94-2,1.1-.77.16-1.63.1-2.57-.18-.93-.28-1.69-.74-2.28-1.38-.59-.64-.98-1.4-1.16-2.29-.18-.89-.13-1.83.17-2.84.3-1.01.77-1.82,1.42-2.45.64-.63,1.4-1.04,2.27-1.24.87-.2,1.78-.15,2.73.13.88.26,1.63.67,2.23,1.21.6.54,1.06,1.23,1.38,2.05l3.18-1.72c-.48-1.11-1.22-2.08-2.2-2.92-.99-.84-2.17-1.47-3.56-1.88-1.2-.36-2.39-.49-3.57-.38-1.18.11-2.27.42-3.28.94-1.01.52-1.89,1.22-2.63,2.09-.74.87-1.29,1.9-1.64,3.07-.35,1.17-.46,2.33-.33,3.48.13,1.14.47,2.21,1,3.19.54.98,1.26,1.84,2.16,2.57.9.73,1.94,1.28,3.11,1.63,1.6.48,3.11.56,4.54.26,1.43-.3,2.68-1.01,3.77-2.12,1.09-1.11,1.92-2.64,2.5-4.57Z"/><path class="cls-6" d="m254.11,108.19l-14.07,11.42,3.39,1.9,2.47-2.11,5.76,3.23-.53,3.2,3.45,1.94,2.49-17.92-2.95-1.66Zm-1.92,11.24l-3.82-2.14,4.86-4.16-1.05,6.3Z"/><polygon class="cls-6" points="266.23 115.87 255.23 128.63 258.07 131.08 258.07 131.08 263.73 135.95 265.88 133.46 260.22 128.58 269.07 118.32 266.23 115.87"/><path class="cls-6" d="m131.3,189.17c.03-.3.03-.47.03-.47-.01.16-.02.31-.03.47Z"/><path class="cls-6" d="m306.61,177.55c-2.52-2.38-5.88-3.77-9.35-3.83-8.17-.13-14.49,6.54-14.31,14.37l-.1.75c.29,11.9-.28,23.54-4.43,34.5-3.98,10.53-10.34,20.12-18.47,27.9-8.39,8.02-18.6,14.04-29.65,17.57-1.84.59-3.71,1.11-5.59,1.56-41.01,9.87-82.25-15.43-92.1-56.5-1.95-8.13-2.52-16.26-1.87-24.16-.21,2.03-1.82,10.03-14.13,10.76-12.46.73-14.11-9.98-14.11-9.98-.76,10.49.08,19.2,2.66,29.98,13.49,56.25,69.97,90.9,126.14,77.38,11.4-2.74,22.32-7.38,32.18-13.73,9.56-6.16,18.08-13.89,25.16-22.79,7.02-8.83,12.61-18.78,16.49-29.38,3.93-10.74,6.09-22.12,6.34-33.56.16-7.07.95-15.35-4.87-20.85Zm-119.68,103.38c-.25.76-.58,1.42-.99,1.99-.41.57-.94,1.09-1.58,1.57-.65.47-1.46.95-2.44,1.45l-5.01,2.49,7.16,2.38-1.2,3.61-13.69-4.56.79-2.37,9.81-5.11c.6-.3,1.1-.59,1.49-.88.4-.29.71-.58.95-.87.24-.29.41-.61.53-.95.25-.74.2-1.39-.13-1.98-.34-.58-.89-1-1.66-1.26-.75-.25-1.5-.28-2.24-.07-.74.2-1.54.67-2.4,1.4l-2.01-3.39c1.18-1.02,2.46-1.67,3.84-1.92,1.38-.26,2.83-.13,4.34.37,1.31.44,2.37,1.06,3.17,1.86.8.81,1.31,1.75,1.55,2.82.23,1.08.15,2.21-.26,3.42Zm18.23,6.73c-.26,2.05-.85,3.8-1.78,5.24-.93,1.45-2.09,2.52-3.46,3.22-1.38.7-2.87.94-4.49.74-1.6-.2-2.99-.81-4.18-1.84-1.19-1.03-2.06-2.36-2.61-4-.55-1.64-.7-3.48-.44-5.51.26-2.05.85-3.79,1.77-5.23.92-1.44,2.08-2.51,3.46-3.2,1.38-.7,2.88-.94,4.5-.74,1.63.2,3.04.81,4.21,1.83,1.17,1.02,2.03,2.34,2.58,3.97.55,1.63.7,3.47.44,5.52Zm2.8,9.93l-.19-2.49,7.08-8.5c.44-.51.78-.97,1.04-1.39.25-.42.43-.8.54-1.17.11-.36.15-.72.12-1.08-.06-.77-.35-1.36-.89-1.77s-1.21-.58-2.02-.52c-.79.06-1.49.32-2.09.8-.6.47-1.16,1.21-1.67,2.22l-3.17-2.35c.69-1.4,1.63-2.49,2.8-3.26s2.56-1.22,4.14-1.33c1.38-.1,2.59.06,3.64.5,1.05.43,1.89,1.1,2.51,2.01.63.9.99,1.99,1.08,3.25.06.79,0,1.53-.15,2.22s-.44,1.37-.86,2.06c-.41.69-.98,1.44-1.7,2.28l-3.66,4.23,7.53-.56.28,3.79-14.39,1.07Zm30.3-7.91c-.37,1.15-1.05,2.15-2.03,3-.98.85-2.23,1.47-3.75,1.87-1.34.35-2.62.44-3.86.27-1.24-.17-2.36-.6-3.36-1.27l2.04-3.5c.48.42,1.1.7,1.85.85.75.15,1.5.12,2.26-.08.68-.18,1.23-.45,1.66-.82.43-.37.73-.81.9-1.32s.17-1.07.01-1.68c-.16-.6-.44-1.08-.83-1.44-.4-.35-.9-.58-1.5-.68-.6-.1-1.28-.05-2.03.15-.35.09-.7.21-1.07.35-.36.14-.66.3-.89.45l-.63-2.39,2.54-5.28-6.61,1.74-.96-3.65,12.5-3.29.63,2.39-3.12,6.25c.83-.16,1.64-.13,2.41.09.91.26,1.71.75,2.4,1.48.69.73,1.19,1.68,1.5,2.85.34,1.28.32,2.5-.05,3.66Zm62.65-98.35c-2.29,0-4.15-1.86-4.15-4.16s1.86-4.16,4.15-4.16,4.15,1.86,4.15,4.16-1.86,4.16-4.15,4.16Z"/><path class="cls-6" d="m199.53,281.25c-.54-.55-1.23-.88-2.08-.99-.81-.1-1.55.05-2.22.44-.67.39-1.22,1.04-1.66,1.94s-.74,2.04-.91,3.44c-.17,1.39-.16,2.57.04,3.55.2.98.58,1.75,1.13,2.32.55.57,1.24.9,2.06,1,.83.1,1.57-.05,2.23-.45.66-.4,1.21-1.06,1.66-1.97.45-.91.76-2.05.93-3.42.17-1.39.15-2.58-.06-3.56-.21-.98-.59-1.75-1.13-2.3Z"/><g id="Grupo_89" class="cls-8"><g id="_PYCONPT23_" class="cls-4"><text class="cls-1" transform="translate(-48.57 950.14)"><tspan x="0" y="0">#PYCONPT23</tspan></text></g><g id="_PYCONPT23_2" class="cls-4"><text class="cls-2" transform="translate(-184.89 989.17)"><tspan x="0" y="0">#PYCONPT23</tspan></text></g><g id="_PYCONPT23_3" class="cls-4"><text class="cls-1" transform="translate(-48.57 1028.2)"><tspan x="0" y="0">#PYCONPT23</tspan></text></g><g id="_PYCONPT23_4" class="cls-4"><text class="cls-5" transform="translate(173.97 950.14)"><tspan x="0" y="0">#PYCONPT23</tspan></text></g><g id="_PYCONPT23_5" class="cls-4"><text class="cls-3" transform="translate(37.65 989.17)"><tspan x="0" y="0">#PYCONPT23</tspan></text></g><g id="_PYCONPT23_6" class="cls-4"><text class="cls-5" transform="translate(173.97 1028.2)"><tspan x="0" y="0">#PYCONPT23</tspan></text></g><g id="_PYCONPT23_7" class="cls-4"><text class="cls-1" transform="translate(396.5 950.14)"><tspan x="0" y="0">#PYCONPT23</tspan></text></g><g id="_PYCONPT23_8" class="cls-4"><text class="cls-2" transform="translate(396.5 950.14)"><tspan x="0" y="0">#PYCONPT23</tspan></text></g><g id="_PYCONPT23_9" class="cls-4"><text class="cls-1" transform="translate(260.18 989.17)"><tspan x="0" y="0">#PYCONPT23</tspan></text></g><g id="_PYCONPT23_10" class="cls-4"><text class="cls-2" transform="translate(396.5 1028.2)"><tspan x="0" y="0">#PYCONPT23</tspan></text></g><g id="_PYCONPT23_11" class="cls-4"><text class="cls-3" transform="translate(619.04 950.14)"><tspan x="0" y="0">#PYCONPT23</tspan></text></g><g id="_PYCONPT23_12" class="cls-4"><text class="cls-5" transform="translate(482.72 989.17)"><tspan x="0" y="0">#PYCONPT23</tspan></text></g><g id="_PYCONPT23_13" class="cls-4"><text class="cls-3" transform="translate(619.04 1028.2)"><tspan x="0" y="0">#PYCONPT23</tspan></text></g><g id="_PYCONPT23_14" class="cls-4"><text class="cls-1" transform="translate(841.57 950.14)"><tspan x="0" y="0">#PYCONPT23</tspan></text></g><g id="_PYCONPT23_8-2" class="cls-4"><text class="cls-2" transform="translate(1294.06 950.14)"><tspan x="0" y="0">#PYCONPT23</tspan></text></g><g id="_PYCONPT23_11-2" class="cls-4"><text class="cls-3" transform="translate(1516.6 950.14)"><tspan x="0" y="0">#PYCONPT23</tspan></text></g><g id="_PYCONPT23_14-2" class="cls-4"><text class="cls-1" transform="translate(1739.13 950.14)"><tspan x="0" y="0">#PYCONPT23</tspan></text></g><g id="_PYCONPT23_15" class="cls-4"><text class="cls-2" transform="translate(705.26 989.17)"><tspan x="0" y="0">#PYCONPT23</tspan></text></g><g id="_PYCONPT23_16" class="cls-4"><text class="cls-1" transform="translate(841.57 1028.2)"><tspan x="0" y="0">#PYCONPT23</tspan></text></g><g id="_PYCONPT23_17" class="cls-4"><text class="cls-5" transform="translate(1064.11 950.14)"><tspan x="0" y="0">#PYCONPT23</tspan></text></g><g id="_PYCONPT23_18" class="cls-4"><text class="cls-3" transform="translate(927.79 989.17)"><tspan x="0" y="0">#PYCONPT23</tspan></text></g><g id="_PYCONPT23_9-2" class="cls-4"><text class="cls-1" transform="translate(1159.16 989.17)"><tspan x="0" y="0">#PYCONPT23</tspan></text></g><g id="_PYCONPT23_12-2" class="cls-4"><text class="cls-5" transform="translate(1381.7 989.17)"><tspan x="0" y="0">#PYCONPT23</tspan></text></g><g id="_PYCONPT23_15-2" class="cls-4"><text class="cls-2" transform="translate(1604.23 989.17)"><tspan x="0" y="0">#PYCONPT23</tspan></text></g><g id="_PYCONPT23_18-2" class="cls-4"><text class="cls-3" transform="translate(1826.77 989.17)"><tspan x="0" y="0">#PYCONPT23</tspan></text></g><g id="_PYCONPT23_19" class="cls-4"><text class="cls-5" transform="translate(1064.11 1028.2)"><tspan x="0" y="0">#PYCONPT23</tspan></text></g><g id="_PYCONPT23_10-2" class="cls-4"><text class="cls-2" transform="translate(1294.62 1028.2)"><tspan x="0" y="0">#PYCONPT23</tspan></text></g><g id="_PYCONPT23_13-2" class="cls-4"><text class="cls-3" transform="translate(1517.16 1028.2)"><tspan x="0" y="0">#PYCONPT23</tspan></text></g><g id="_PYCONPT23_16-2" class="cls-4"><text class="cls-1" transform="translate(1739.69 1028.2)"><tspan x="0" y="0">#PYCONPT23</tspan></text></g></g></svg>
