<svg id="Group_12" data-name="Group 12" xmlns="http://www.w3.org/2000/svg" xmlns:xlink="http://www.w3.org/1999/xlink" width="78.935" height="80" viewBox="0 0 78.935 80">
  <defs>
    <clipPath id="clip-path">
      <rect id="Rectangle_394" data-name="Rectangle 394" width="78.934" height="80" fill="#f7f7f7"/>
    </clipPath>
  </defs>
  <g id="Group_11" data-name="Group 11" clip-path="url(#clip-path)">
    <path id="Path_14" data-name="Path 14" d="M98.783,165.975a3.846,3.846,0,0,0-1.744-.389H92.786v10.177h2.263v-3.7h1.989a3.782,3.782,0,0,0,1.744-.4,3.058,3.058,0,0,0,1.232-1.124,3.5,3.5,0,0,0,0-3.445,3.013,3.013,0,0,0-1.232-1.117m-.764,3.647a1.319,1.319,0,0,1-.548.5,1.684,1.684,0,0,1-.764.173H95.049v-2.955h1.658a1.686,1.686,0,0,1,.764.173,1.323,1.323,0,0,1,.548.5,1.5,1.5,0,0,1,.2.793,1.525,1.525,0,0,1-.2.807" transform="translate(-74.076 -132.196)" fill="#f7f7f7"/>
    <path id="Path_15" data-name="Path 15" d="M136.877,185.566l-1.4-4.254H133.1l2.674,6.524-1.593,3.436h2.263l1.24-2.926,3-7.035h-2.378Z" transform="translate(-106.263 -144.751)" fill="#f7f7f7"/>
    <path id="Path_16" data-name="Path 16" d="M179.965,172.987a3.443,3.443,0,0,1-1.355.245,3.141,3.141,0,0,1-1.218-.231,2.74,2.74,0,0,1-.951-.648,2.969,2.969,0,0,1-.62-1.009,3.681,3.681,0,0,1-.223-1.312,3.639,3.639,0,0,1,.223-1.3,2.968,2.968,0,0,1,.62-1.009,2.665,2.665,0,0,1,.951-.641,3.234,3.234,0,0,1,1.218-.223,3.314,3.314,0,0,1,1.319.245,2.859,2.859,0,0,1,.973.677l1.514-1.528a5.248,5.248,0,0,0-1.65-1.067,5.614,5.614,0,0,0-2.155-.389,5.547,5.547,0,0,0-2.112.4,5.2,5.2,0,0,0-1.694,1.1,5.046,5.046,0,0,0-1.124,1.665,5.5,5.5,0,0,0,0,4.137,5.15,5.15,0,0,0,2.832,2.8,5.546,5.546,0,0,0,2.112.4,5.692,5.692,0,0,0,2.184-.389,5.611,5.611,0,0,0,1.679-1.067l-1.528-1.528a3,3,0,0,1-.995.678" transform="translate(-138.336 -131.568)" fill="#f7f7f7"/>
    <path id="Path_17" data-name="Path 17" d="M226.825,181a4,4,0,0,0-1.96-.476,3.953,3.953,0,0,0-1.96.483,3.682,3.682,0,0,0-1.369,1.3,3.48,3.48,0,0,0-.5,1.86,3.554,3.554,0,0,0,.5,1.874,3.629,3.629,0,0,0,1.376,1.319,4.206,4.206,0,0,0,3.914,0,3.648,3.648,0,0,0,1.369-1.319,3.558,3.558,0,0,0,.5-1.874,3.521,3.521,0,0,0-.5-1.867,3.614,3.614,0,0,0-1.369-1.3m-.569,4.043a1.4,1.4,0,0,1-.555.591,1.636,1.636,0,0,1-.836.209,1.607,1.607,0,0,1-.822-.209,1.446,1.446,0,0,1-.562-.591,1.938,1.938,0,0,1,0-1.722,1.459,1.459,0,0,1,.562-.584,1.733,1.733,0,0,1,1.65,0,1.491,1.491,0,0,1,.555.576,1.757,1.757,0,0,1,.2.858,1.894,1.894,0,0,1-.195.872" transform="translate(-176.46 -144.122)" fill="#f7f7f7"/>
    <path id="Path_18" data-name="Path 18" d="M270.979,181.938a2.7,2.7,0,0,0-.944-.973,2.577,2.577,0,0,0-1.377-.368,3.058,3.058,0,0,0-1.449.339,2.555,2.555,0,0,0-.512.36v-.554h-2.205v7.006H266.7v-3.993a1.284,1.284,0,0,1,.159-.641,1.1,1.1,0,0,1,.433-.432,1.288,1.288,0,0,1,.634-.151,1.163,1.163,0,0,1,.858.339,1.2,1.2,0,0,1,.339.886v3.993h2.205v-4.483a2.626,2.626,0,0,0-.346-1.326" transform="translate(-211.158 -144.18)" fill="#f7f7f7"/>
    <path id="Path_19" data-name="Path 19" d="M78.531,31.82A39.864,39.864,0,0,0,.954,29.66c-.057.217-.117.436-.177.657C.223,32.356-.4,34.667.343,36.82a5.81,5.81,0,0,0,4.62,3.812,5.711,5.711,0,0,0,.812.058,5.78,5.78,0,0,0,5.62-4.5l.09-.234.021-.07c.824-3.846,2.013-8.287,4.579-12.058a28.105,28.105,0,0,1,9.06-8.432,28.559,28.559,0,0,1,12.194-3.752c.712-.052,1.436-.078,2.15-.078a27.977,27.977,0,0,1,17.685,6.209,28.409,28.409,0,0,1,9.851,15.575l.385,1.627.519-1.592c.029-.09.76-2.224,4.181-3.079A5.6,5.6,0,0,1,77.7,32.2l1.234,1.593Zm-6.649-2.426a7.261,7.261,0,0,0-4.237,2.6A29.238,29.238,0,0,0,39.489,10.627c-.737,0-1.484.027-2.219.081a29.5,29.5,0,0,0-12.6,3.877A29.05,29.05,0,0,0,15.309,23.3c-2.649,3.893-3.87,8.427-4.713,12.354l-.089.233-.02.069a4.816,4.816,0,0,1-9.258.557c-.652-1.879-.09-3.948.453-5.949.061-.224.121-.445.178-.664a38.648,38.648,0,0,1,5.2-11.57A38.924,38.924,0,0,1,77.278,30.523a6.247,6.247,0,0,0-5.4-1.129" transform="translate(0)" fill="#f7f7f7"/>
    <path id="Path_20" data-name="Path 20" d="M14.495,168.175a1.563,1.563,0,1,0,1.563,1.563,1.563,1.563,0,0,0-1.563-1.563" transform="translate(-10.324 -134.263)" fill="#f7f7f7"/>
    <path id="Path_21" data-name="Path 21" d="M80.57,51.443a1.986,1.986,0,0,0-.906-.64,1.874,1.874,0,0,0-1.035-.04,2.4,2.4,0,0,0-.988.512l-.95.8h0l-1.08.906,4.072,4.859,1.081-.906L79.28,55.161l.95-.8a2.358,2.358,0,0,0,.674-.887,1.907,1.907,0,0,0,.139-1.03,1.986,1.986,0,0,0-.472-1m-.907,1.826a1.051,1.051,0,0,1-.3.388l-.791.663L77.394,52.91l.791-.663a1.047,1.047,0,0,1,.434-.223.821.821,0,0,1,.463.022.929.929,0,0,1,.414.3.95.95,0,0,1,.227.466.824.824,0,0,1-.06.46" transform="translate(-60.363 -40.483)" fill="#f7f7f7"/>
    <path id="Path_22" data-name="Path 22" d="M112,33.769a3.317,3.317,0,0,0-.81-1.045,3.162,3.162,0,0,0-1.1-.612,3.245,3.245,0,0,0-1.257-.14,3.651,3.651,0,0,0-2.356,1.191,3.188,3.188,0,0,0-.787,2.334,3.435,3.435,0,0,0,1.164,2.3,3.173,3.173,0,0,0,1.1.614,3.322,3.322,0,0,0,1.266.145,3.418,3.418,0,0,0,1.3-.373,3.378,3.378,0,0,0,1.053-.813,3.255,3.255,0,0,0,.628-1.1,3.191,3.191,0,0,0,.156-1.246A3.293,3.293,0,0,0,112,33.769m-1.3,2.61a1.916,1.916,0,0,1-.772.672,2.007,2.007,0,0,1-.754.22,1.668,1.668,0,0,1-.717-.1,1.844,1.844,0,0,1-.626-.393,2.368,2.368,0,0,1-.489-.669,2.219,2.219,0,0,1-.263-1.039,1.691,1.691,0,0,1,.277-.915,1.943,1.943,0,0,1,.774-.667,2.033,2.033,0,0,1,.748-.222,1.684,1.684,0,0,1,.715.091,1.819,1.819,0,0,1,.628.387,2.316,2.316,0,0,1,.487.664,2.252,2.252,0,0,1,.263,1.039,1.7,1.7,0,0,1-.271.927" transform="translate(-84.369 -25.517)" fill="#f7f7f7"/>
    <path id="Path_23" data-name="Path 23" d="M144.021,23.8a1.807,1.807,0,0,0,.58-.81,1.889,1.889,0,0,0-.457-1.89,1.839,1.839,0,0,0-.879-.467,2.437,2.437,0,0,0-1.129.028l-1.143.276h0l-1.371.331,1.489,6.162,1.37-.331-.613-2.54.143-.034,2.452,2.1,1.623-.392-2.6-2.11a2.289,2.289,0,0,0,.536-.32m-.838-.851a.913.913,0,0,1-.582.362l-.977.236L141.25,22l.986-.238a.876.876,0,0,1,.681.066.842.842,0,0,1,.266,1.118" transform="translate(-111.467 -16.431)" fill="#f7f7f7"/>
    <path id="Path_24" data-name="Path 24" d="M173.587,15.769l-5.367.358.082,1.228,1.98-.132.34,5.1,1.407-.094-.34-5.1,1.98-.132Z" transform="translate(-134.299 -12.59)" fill="#f7f7f7"/>
    <path id="Path_25" data-name="Path 25" d="M203.952,20.18a1.289,1.289,0,0,1-.216.634,1.088,1.088,0,0,1-.463.381,1.283,1.283,0,0,1-.639.091,1.321,1.321,0,0,1-.608-.2,1.088,1.088,0,0,1-.4-.465,1.282,1.282,0,0,1-.1-.667l.357-3.908-1.413-.129-.35,3.827a2.654,2.654,0,0,0,.213,1.367,2.4,2.4,0,0,0,.846,1,2.793,2.793,0,0,0,1.342.456,2.763,2.763,0,0,0,1.4-.206,2.384,2.384,0,0,0,1-.828,2.657,2.657,0,0,0,.453-1.3l.351-3.836-1.413-.129Z" transform="translate(-159.751 -12.703)" fill="#f7f7f7"/>
    <path id="Path_26" data-name="Path 26" d="M237.964,27.12l.059-.2-3.192-.952-.341,1.144,1.735.548a1.707,1.707,0,0,1-.233.308,1.444,1.444,0,0,1-.751.413,1.973,1.973,0,0,1-.968-.069,1.857,1.857,0,0,1-.857-.518,1.783,1.783,0,0,1-.437-.861,2.159,2.159,0,0,1,.065-1.068,2.105,2.105,0,0,1,.533-.923,1.757,1.757,0,0,1,.856-.466,2,2,0,0,1,1.026.048,2.139,2.139,0,0,1,.838.456,1.991,1.991,0,0,1,.519.773l1.2-.646a3.037,3.037,0,0,0-.829-1.1,3.634,3.634,0,0,0-1.339-.709,3.554,3.554,0,0,0-1.344-.143,3.316,3.316,0,0,0-1.234.353,3.218,3.218,0,0,0-.989.787,3.156,3.156,0,0,0-.617,1.156,3.235,3.235,0,0,0,1.067,3.476,3.353,3.353,0,0,0,1.171.612,3.419,3.419,0,0,0,1.709.1,2.765,2.765,0,0,0,1.419-.8,4.084,4.084,0,0,0,.939-1.72" transform="translate(-184.83 -18.477)" fill="#f7f7f7"/>
    <path id="Path_27" data-name="Path 27" d="M263.06,37.278l-5.3,4.3,1.276.716.93-.8,2.167,1.217-.2,1.206,1.3.73.935-6.746Zm-.723,4.228L260.9,40.7l1.83-1.565Z" transform="translate(-205.786 -29.761)" fill="#f7f7f7"/>
    <path id="Path_28" data-name="Path 28" d="M290.261,51.62l-4.139,4.8,1.068.92,2.129,1.835.809-.939L288,56.4l3.33-3.863Z" transform="translate(-228.425 -41.211)" fill="#f7f7f7"/>
    <path id="Path_29" data-name="Path 29" d="M54.815,187.716c.012-.112.012-.176.012-.176-.005.058-.007.118-.012.176" transform="translate(-43.762 -149.723)" fill="#f7f7f7"/>
    <path id="Path_30" data-name="Path 30" d="M77.5,161.027a5.279,5.279,0,0,0-8.9,3.969l-.037.284c.11,4.478-.107,8.859-1.666,12.985a28.525,28.525,0,0,1-6.952,10.5,28.918,28.918,0,0,1-11.157,6.611q-1.041.333-2.1.588a28.785,28.785,0,0,1-35.365-30.356c-.079.765-.685,3.777-5.318,4.049C1.306,169.932.683,165.9.683,165.9a34.619,34.619,0,0,0,1,11.281,39.372,39.372,0,0,0,77.644-8.309c.059-2.661.359-5.777-1.832-7.847M32.456,199.935a2.788,2.788,0,0,1-.373.749,2.654,2.654,0,0,1-.6.59,6.543,6.543,0,0,1-.919.545l-1.886.937,2.694.9-.452,1.359L25.773,203.3l.3-.892,3.694-1.924a4.03,4.03,0,0,0,.561-.331,1.89,1.89,0,0,0,.357-.326,1.122,1.122,0,0,0,.2-.357.875.875,0,0,0-.051-.744,1.079,1.079,0,0,0-.626-.473,1.413,1.413,0,0,0-.841-.027,2.469,2.469,0,0,0-.9.527l-.757-1.277a3.033,3.033,0,0,1,1.446-.724,3.235,3.235,0,0,1,1.633.138,2.963,2.963,0,0,1,1.191.7,2.113,2.113,0,0,1,.582,1.061,2.419,2.419,0,0,1-.1,1.286m6.862,2.534a4.652,4.652,0,0,1-.671,1.974,3.36,3.36,0,0,1-1.3,1.211,2.868,2.868,0,0,1-1.688.28,2.906,2.906,0,0,1-1.572-.692,3.341,3.341,0,0,1-.981-1.507,5.15,5.15,0,0,1,.5-4.041,3.3,3.3,0,0,1,1.3-1.205,3.046,3.046,0,0,1,3.277.409,3.343,3.343,0,0,1,.972,1.495,4.658,4.658,0,0,1,.166,2.078m1.052,3.737-.07-.938,2.665-3.2a3.972,3.972,0,0,0,.39-.522,1.873,1.873,0,0,0,.2-.439,1.118,1.118,0,0,0,.045-.405.873.873,0,0,0-.334-.666,1.079,1.079,0,0,0-.759-.2,1.412,1.412,0,0,0-.787.3,2.473,2.473,0,0,0-.629.835l-1.192-.886a3.035,3.035,0,0,1,1.055-1.226,3.234,3.234,0,0,1,1.559-.5,2.966,2.966,0,0,1,1.37.187,2.108,2.108,0,0,1,.946.755,2.419,2.419,0,0,1,.408,1.223,2.793,2.793,0,0,1-.055.835,2.647,2.647,0,0,1-.323.774,6.5,6.5,0,0,1-.638.857l-1.378,1.592,2.832-.212.107,1.428Zm11.4-2.977a2.473,2.473,0,0,1-.764,1.129,3.486,3.486,0,0,1-1.412.7,3.673,3.673,0,0,1-1.454.1,2.955,2.955,0,0,1-1.264-.479l.769-1.319a1.45,1.45,0,0,0,.7.319,1.888,1.888,0,0,0,.849-.03,1.554,1.554,0,0,0,.626-.309,1.062,1.062,0,0,0,.344-1.129,1.017,1.017,0,0,0-.878-.8,1.855,1.855,0,0,0-.764.057,3.48,3.48,0,0,0-.4.133,1.729,1.729,0,0,0-.336.171l-.236-.9.955-1.986-2.488.655-.362-1.375,4.7-1.238.237.9-1.174,2.353a1.955,1.955,0,0,1,.907.033,1.984,1.984,0,0,1,.9.558,2.624,2.624,0,0,1,.545,2.448m23.58-37.014a1.564,1.564,0,1,1,1.562-1.564,1.563,1.563,0,0,1-1.562,1.564" transform="translate(-0.465 -127.406)" fill="#f7f7f7"/>
    <path id="Path_31" data-name="Path 31" d="M171.742,358.764a1.364,1.364,0,0,0-1.616-.207,1.641,1.641,0,0,0-.624.73,4.927,4.927,0,0,0-.328,2.63,1.71,1.71,0,0,0,.424.871,1.344,1.344,0,0,0,1.616.207,1.733,1.733,0,0,0,.626-.74,4.775,4.775,0,0,0,.327-2.625,1.731,1.731,0,0,0-.425-.866" transform="translate(-135.011 -286.113)" fill="#f7f7f7"/>
  </g>
</svg>
