<svg xmlns="http://www.w3.org/2000/svg" xmlns:xlink="http://www.w3.org/1999/xlink" width="21.081" height="19.897" viewBox="0 0 21.081 19.897">
  <defs>
    <clipPath id="clip-path">
      <rect id="Rectangle_439" data-name="Rectangle 439" width="21.081" height="19.897" transform="translate(0 0)" fill="#00969c"/>
    </clipPath>
  </defs>
  <g id="Group_80" data-name="Group 80" transform="translate(0 0)">
    <g id="Group_79" data-name="Group 79" transform="translate(0 0)" clip-path="url(#clip-path)">
      <path id="Path_564" data-name="Path 564" d="M10.855,2.546l2.556-2.4a.323.323,0,0,1,.539.181l.509,3.013a.323.323,0,0,0,.316.269l3.987.02a.322.322,0,0,1,.3.429L18.013,7.039a.322.322,0,0,0,.1.358l2.846,2.3a.322.322,0,0,1,.007.5l-2.454,2.09a.322.322,0,0,0-.106.315l.72,3.26a.323.323,0,0,1-.313.392l-3.84.02a.323.323,0,0,0-.313.252l-.694,3.095a.322.322,0,0,1-.527.172l-2.6-2.266a.322.322,0,0,0-.416-.007L7.605,19.824a.322.322,0,0,1-.516-.167L6.2,16.3a.323.323,0,0,0-.326-.239L2.3,16.223a.322.322,0,0,1-.324-.413l.877-2.992a.322.322,0,0,0-.1-.335L.112,10.2A.322.322,0,0,1,.134,9.7l2.6-1.885a.323.323,0,0,0,.123-.343L1.97,4.076a.322.322,0,0,1,.342-.4l3.547.336A.323.323,0,0,0,6.2,3.766L7.089.244A.323.323,0,0,1,7.614.081l2.806,2.472a.322.322,0,0,0,.434-.007" transform="translate(0 0)" fill="#00969c"/>
    </g>
  </g>
</svg>
