<svg xmlns="http://www.w3.org/2000/svg" width="22.5" height="25" viewBox="0 0 22.5 25">
  <path id="calendar_month_FILL1_wght400_GRAD0_opsz48" d="M131.25,191a1.228,1.228,0,1,1,.891-.359A1.209,1.209,0,0,1,131.25,191Zm-5,0a1.228,1.228,0,1,1,.891-.359A1.21,1.21,0,0,1,126.25,191Zm10,0a1.228,1.228,0,1,1,.891-.359A1.21,1.21,0,0,1,136.25,191Zm-5,5a1.228,1.228,0,1,1,.891-.359A1.209,1.209,0,0,1,131.25,196Zm-5,0a1.228,1.228,0,1,1,.891-.359A1.209,1.209,0,0,1,126.25,196Zm10,0a1.228,1.228,0,1,1,.891-.359A1.21,1.21,0,0,1,136.25,196Zm-14.375,5A1.922,1.922,0,0,1,120,199.125V179.75a1.922,1.922,0,0,1,1.875-1.875h2.031V177a.982.982,0,0,1,1-1,1.014,1.014,0,0,1,.735.288.953.953,0,0,1,.3.712v.875h10.625V177a.982.982,0,0,1,1-1,1.014,1.014,0,0,1,.735.288.953.953,0,0,1,.3.712v.875h2.031a1.922,1.922,0,0,1,1.875,1.875v19.375A1.922,1.922,0,0,1,140.625,201Zm0-1.875h18.75V185.688h-18.75Z" transform="translate(-120 -176)" fill="#f9a825"/>
</svg>
