<svg xmlns="http://www.w3.org/2000/svg" width="56" height="55.87" viewBox="0 0 56 55.87">
  <path id="award_star_FILL0_wght400_GRAD0_opsz48" d="M87.746-860.114l-5.939,5.874a3.78,3.78,0,0,1-2.752,1.11,3.712,3.712,0,0,1-2.731-1.11l-6.059-5.874H62.03a3.771,3.771,0,0,1-2.766-1.15,3.771,3.771,0,0,1-1.15-2.766v-8.2l-6-6.032A3.78,3.78,0,0,1,51-881.01a3.712,3.712,0,0,1,1.11-2.731l6-6.032v-8.2a3.771,3.771,0,0,1,1.15-2.766,3.771,3.771,0,0,1,2.766-1.15h8.2l6.032-6A3.867,3.867,0,0,1,79.051-909a3.636,3.636,0,0,1,2.755,1.175l5.939,5.939H95.97a3.771,3.771,0,0,1,2.766,1.15,3.771,3.771,0,0,1,1.15,2.766v8.2l6,6.032A3.78,3.78,0,0,1,107-880.99a3.712,3.712,0,0,1-1.11,2.731l-6,6.032v8.2a3.771,3.771,0,0,1-1.15,2.766,3.771,3.771,0,0,1-2.766,1.15ZM79.065-881.065Zm0,24.019,7.044-6.984H95.97v-9.855L103.084-881l-7.114-7.114v-9.855H86.114l-7.049-7.114-7.179,7.114H62.03v9.855L54.916-881l7.114,7.114v9.855h9.79ZM79-874.538l5.678,3.459a.853.853,0,0,0,1.044-.065.973.973,0,0,0,.392-1.044l-1.5-6.4,5.026-4.373A.87.87,0,0,0,89.932-884a.978.978,0,0,0-.881-.653l-6.592-.522-2.545-6.07a.911.911,0,0,0-.91-.587.927.927,0,0,0-.918.587l-2.545,6.07-6.592.522a.978.978,0,0,0-.881.653.87.87,0,0,0,.294,1.044l5.026,4.373-1.5,6.4a.973.973,0,0,0,.392,1.044.853.853,0,0,0,1.044.065Z" transform="translate(-51 909)" fill="#f6f6f6"/>
</svg>
