<svg xmlns="http://www.w3.org/2000/svg" width="25" height="22.5" viewBox="0 0 25 22.5">
  <path id="handshake_FILL1_wght400_GRAD0_opsz48" d="M92.625,238.5a1.246,1.246,0,0,1-.906-.368,1.246,1.246,0,0,1-.281-1.366,1.249,1.249,0,0,1,.281-.422l5.781-5.781-.656-.656-5.781,5.781a1.3,1.3,0,0,1-.406.281,1.177,1.177,0,0,1-.469.094,1.228,1.228,0,0,1-1.25-1.25,1.133,1.133,0,0,1,.344-.875l5.781-5.781-.656-.656-5.781,5.75a1.3,1.3,0,0,1-.406.281,1.259,1.259,0,0,1-.5.094,1.282,1.282,0,0,1-1.25-1.25,1.177,1.177,0,0,1,.094-.469,1.3,1.3,0,0,1,.281-.406l5.781-5.781-.656-.656-5.75,5.781a1.182,1.182,0,0,1-.375.25,1.347,1.347,0,0,1-.531.094,1.226,1.226,0,0,1-.891-.35,1.164,1.164,0,0,1-.359-.868,1.177,1.177,0,0,1,.094-.469,1.3,1.3,0,0,1,.281-.406l6.969-6.969,3.969,3.969a3.442,3.442,0,0,0,.766.578,2.062,2.062,0,0,0,1.016.234,2.383,2.383,0,0,0,1.688-.641,2.432,2.432,0,0,0,.516-2.594,2.552,2.552,0,0,0-.578-.828l-5.594-5.594.188-.219a3.8,3.8,0,0,1,1.188-.766A3.475,3.475,0,0,1,95.875,216a4.128,4.128,0,0,1,1.5.266,3.59,3.59,0,0,1,1.25.828l5.281,5.313a3.59,3.59,0,0,1,.828,1.25A4.406,4.406,0,0,1,105,225.25a3.131,3.131,0,0,1-.281,1.266,3.829,3.829,0,0,1-.812,1.172L93.5,238.125a1.231,1.231,0,0,1-.437.313A1.385,1.385,0,0,1,92.625,238.5Zm-9.844-9.125-1.687-1.687a3.355,3.355,0,0,1-.812-1.187A3.761,3.761,0,0,1,80,225.063a3.582,3.582,0,0,1,.313-1.5,3.892,3.892,0,0,1,.781-1.156l5.281-5.312a3.777,3.777,0,0,1,1.188-.8,3.376,3.376,0,0,1,1.344-.3,4.446,4.446,0,0,1,1.5.234,3.511,3.511,0,0,1,1.281.859l6.406,6.406a1.811,1.811,0,0,1,.391.531,1.239,1.239,0,0,1,.109.5,1.39,1.39,0,0,1-1.437,1.438,1.346,1.346,0,0,1-.578-.141,2.1,2.1,0,0,1-.578-.422l-4.625-4.625Z" transform="translate(-80 -216)" fill="#42949a"/>
</svg>
